{"title":"Once Upon A Time In America[1984][1024x576]BRrip XviD AC3 - CODY","uid":6237582,"size":4043560149,"categoryP":"video","categoryS":"movies","magnet":"?xt=urn:btih:c659f110916c6914e2683ead18548640201f8b11&amp;dn=Once+Upon+A+Time+In+America%5B1984%5D%5B1024x576%5DBRrip+XviD+AC3+-+CODY&amp;tr=udp%3A%2F%2Ftracker.openbittorrent.com%3A80&amp;tr=udp%3A%2F%2Fopen.demonii.com%3A1337&amp;tr=udp%3A%2F%2Ftracker.coppersurfer.tk%3A6969&amp;tr=udp%3A%2F%2Fexodus.desync.com%3A6969","seeders":1,"leechers":2,"uploader":"CODYBOSS1969","files":5,"time":1299890620,"description":"General\nComplete name                    : Once.Upon.A.Time.In.America.1984.BRrip.XviD.AC3 - CODY.avi\nFormat                           : AVI\nFormat/Info                      : Audio Video Interleave\nFormat profile                   : OpenDML\nFormat settings                  : rec\nFile size                        : 3.77 GiB\nDuration                         : 3h 49mn\nOverall bit rate                 : 2 351 Kbps\nWriting application              : VirtualDubMod 1.5.10.2 (build 2540/release)\nWriting library                  : VirtualDubMod build 2540/release\n\n\nVideo\nID                               : 0\nFormat                           : MPEG-4 Visual\nFormat profile                   : Advanced Simple@L5\nFormat settings, BVOP            : Yes\nFormat settings, QPel            : No\nFormat settings, GMC             : No warppoints\nFormat settings, Matrix          : Default (H.263)\nMuxing mode                      : Packed bitstream\nCodec ID                         : XVID\nCodec ID/Hint                    : XviD\nDuration                         : 3h 49mn\nBit rate                         : 1 900 Kbps\nWidth                            : 1 024 pixels\nHeight                           : 576 pixels\nDisplay aspect ratio             : 16:9\nFrame rate                       : 23.976 fps\nColor space                      : YUV\nChroma subsampling               : 4:2:0\nBit depth                        : 8 bits\nScan type                        : Progressive\nCompression mode                 : Lossy\nBits/(Pixel*Frame)               : 0.134\nStream size                      : 3.04 GiB (81%)\nWriting library                  : XviD 1.2.0.dev47 (UTC 2006-11-01)\n\nAudio\nID                               : 1\nFormat                           : AC-3\nFormat/Info                      : Audio Coding 3\nMode extension                   : CM (complete main)\nCodec ID                         : 2000\nDuration                         : 3h 49mn\nBit rate mode                    : Constant\nBit rate                         : 448 Kbps\nChannel(s)                       : 6 channels\nChannel positions                : Front: L C R, Side: L R, LFE\nSampling rate                    : 48.0 KHz\nBit depth                        : 16 bits\nCompression mode                 : Lossy\nStream size                      : 735 MiB (19%)\nAlignment                        : Aligned on interleaves\nInterleave, duration             : 64 ms (1.53 video frames)\nInterleave, preload duration     : 192 ms\n\n\n\n\nIMDB link:                      &lt;a href=&quot; http://www.imdb.com/title/tt0087843/&quot; rel=&quot;nofollow&quot; target=&quot;_NEW&quot;&gt; http://www.imdb.com/title/tt0087843/&lt;/a&gt;\n\n\n\n\nSubtitles included               :  Romanian, English\n\n\n\n\nI hope you'll seed at least 1,5:1. This way this torrent has a chance to survive !!\n\n\n\nThanks. ENJOY !\n\n\n\n****Bits/(Pixel*Frame)  : 0.134   !!! \n\nFor this reason this  BRrip is not a 720p \n\nand the resolution had been lowered at 1024x576  !!!\n\n(otherwise this ratio have been 0.086 at the same file size and video bit rate !!! )\n","torrent":{"xt":"urn:btih:c659f110916c6914e2683ead18548640201f8b11","amp;dn":"Once+Upon+A+Time+In+America%5B1984%5D%5B1024x576%5DBRrip+XviD+AC3+-+CODY","amp;tr":["udp%3A%2F%2Ftracker.openbittorrent.com%3A80","udp%3A%2F%2Fopen.demonii.com%3A1337","udp%3A%2F%2Ftracker.coppersurfer.tk%3A6969","udp%3A%2F%2Fexodus.desync.com%3A6969"],"infoHash":"c659f110916c6914e2683ead18548640201f8b11","infoHashBuffer":{"type":"Buffer","data":[198,89,241,16,145,108,105,20,226,104,62,173,24,84,134,64,32,31,139,17]},"announce":[],"urlList":[]}}